# Wavefront OBJ file automatically generated by Tiled2Unity

# Vertices (Count = 60)
v -200 -50 0
v -250 -50 0
v -250 0 0
v -200 0 0
v -300 -50 0
v -300 0 0
v -200 -100 0
v -250 -100 0
v -300 -100 0
v -400 -250 0
v -450 -250 0
v -450 -200 0
v -400 -200 0
v -500 -250 0
v -500 -200 0
v -400 -300 0
v -450 -300 0
v -500 -300 0
v 0 -450 0
v -50 -450 0
v -50 -400 0
v 0 -400 0
v -100 -450 0
v -100 -400 0
v 0 -500 0
v -50 -500 0
v -100 -500 0
v -100 -150 0
v -150 -150 0
v -150 -100 0
v -100 -100 0
v -200 -150 0
v -100 -200 0
v -150 -200 0
v -200 -200 0
v -100 -250 0
v -150 -250 0
v -200 -250 0
v -100 -300 0
v -150 -300 0
v -200 -300 0
v -100 -350 0
v -150 -350 0
v -200 -350 0
v -250 -350 0
v -250 -300 0
v -300 -350 0
v -300 -300 0
v -200 -400 0
v -250 -400 0
v -300 -400 0
v -200 -450 0
v -250 -450 0
v -300 -450 0
v -200 -500 0
v -250 -500 0
v -300 -500 0
v -200 -550 0
v -250 -550 0
v -300 -550 0

# Texture cooridinates (Count = 56)
vt 6.103516E-05 0.500061
vt 0.499939 0.500061
vt 0.499939 0.999939
vt 6.103516E-05 0.999939
vt 0.500061 0.500061
vt 0.999939 0.500061
vt 0.999939 0.999939
vt 0.500061 0.999939
vt 6.103516E-05 6.103516E-05
vt 0.499939 6.103516E-05
vt 0.499939 0.499939
vt 6.103516E-05 0.499939
vt 0.500061 6.103516E-05
vt 0.999939 6.103516E-05
vt 0.999939 0.499939
vt 0.500061 0.499939
vt 6.103516E-05 0.8000244
vt 0.499939 0.8000244
vt 0.499939 0.9999756
vt 6.103516E-05 0.9999756
vt 0.500061 0.8000244
vt 0.999939 0.8000244
vt 0.999939 0.9999756
vt 0.500061 0.9999756
vt 6.103516E-05 0.6000244
vt 0.499939 0.6000244
vt 0.499939 0.7999756
vt 6.103516E-05 0.7999756
vt 0.500061 0.6000244
vt 0.999939 0.6000244
vt 0.999939 0.7999756
vt 0.500061 0.7999756
vt 6.103516E-05 0.4000244
vt 0.499939 0.4000244
vt 0.499939 0.5999756
vt 6.103516E-05 0.5999756
vt 0.500061 0.4000244
vt 0.999939 0.4000244
vt 0.999939 0.5999756
vt 0.500061 0.5999756
vt 6.103516E-05 0.2000244
vt 0.499939 0.2000244
vt 0.499939 0.3999756
vt 6.103516E-05 0.3999756
vt 0.500061 0.2000244
vt 0.999939 0.2000244
vt 0.999939 0.3999756
vt 0.500061 0.3999756
vt 6.103516E-05 2.44379E-05
vt 0.499939 2.44379E-05
vt 0.499939 0.1999756
vt 6.103516E-05 0.1999756
vt 0.500061 2.44379E-05
vt 0.999939 2.44379E-05
vt 0.999939 0.1999756
vt 0.500061 0.1999756

# Normal
vn 0 0 -1

# Groups (Count = 3)

g mesh_0001
f 1/1/1 2/2/1 3/3/1 4/4/1
f 2/5/1 5/6/1 6/7/1 3/8/1
f 7/9/1 8/10/1 2/11/1 1/12/1
f 8/13/1 9/14/1 5/15/1 2/16/1
f 10/1/1 11/2/1 12/3/1 13/4/1
f 11/5/1 14/6/1 15/7/1 12/8/1
f 16/9/1 17/10/1 11/11/1 10/12/1
f 17/13/1 18/14/1 14/15/1 11/16/1
f 19/1/1 20/2/1 21/3/1 22/4/1
f 20/5/1 23/6/1 24/7/1 21/8/1
f 25/9/1 26/10/1 20/11/1 19/12/1
f 26/13/1 27/14/1 23/15/1 20/16/1

g mesh_0002
f 28/17/1 29/18/1 30/19/1 31/20/1
f 29/21/1 32/22/1 7/23/1 30/24/1
f 33/25/1 34/26/1 29/27/1 28/28/1
f 34/29/1 35/30/1 32/31/1 29/32/1
f 36/33/1 37/34/1 34/35/1 33/36/1
f 37/37/1 38/38/1 35/39/1 34/40/1
f 39/41/1 40/42/1 37/43/1 36/44/1
f 40/45/1 41/46/1 38/47/1 37/48/1
f 42/49/1 43/50/1 40/51/1 39/52/1
f 43/53/1 44/54/1 41/55/1 40/56/1
f 44/17/1 45/18/1 46/19/1 41/20/1
f 45/21/1 47/22/1 48/23/1 46/24/1
f 49/25/1 50/26/1 45/27/1 44/28/1
f 50/29/1 51/30/1 47/31/1 45/32/1
f 52/33/1 53/34/1 50/35/1 49/36/1
f 53/37/1 54/38/1 51/39/1 50/40/1
f 55/41/1 56/42/1 53/43/1 52/44/1
f 56/45/1 57/46/1 54/47/1 53/48/1
f 58/49/1 59/50/1 56/51/1 55/52/1
f 59/53/1 60/54/1 57/55/1 56/56/1

