# Wavefront OBJ file automatically generated by Tiled2Unity

# Vertices (Count = 100)
v 0 -50 0
v -50 -50 0
v -50 0 0
v 0 0 0
v -100 -50 0
v -100 0 0
v -150 -50 0
v -150 0 0
v -200 -50 0
v -200 0 0
v -250 -50 0
v -250 0 0
v -300 -50 0
v -300 0 0
v 0 -100 0
v -50 -100 0
v -100 -100 0
v -150 -100 0
v -200 -100 0
v -250 -100 0
v -300 -100 0
v 0 -150 0
v -50 -150 0
v -100 -150 0
v -150 -150 0
v -200 -150 0
v -250 -150 0
v -300 -150 0
v 0 -250 0
v -50 -250 0
v -50 -200 0
v 0 -200 0
v -100 -250 0
v -100 -200 0
v -150 -250 0
v -150 -200 0
v -200 -250 0
v -200 -200 0
v -250 -250 0
v -250 -200 0
v -300 -250 0
v -300 -200 0
v -350 -250 0
v -350 -200 0
v -400 -250 0
v -400 -200 0
v 0 -300 0
v -50 -300 0
v -100 -300 0
v -150 -300 0
v -200 -300 0
v -250 -300 0
v -300 -300 0
v -350 -300 0
v -400 -300 0
v 0 -350 0
v -50 -350 0
v -100 -350 0
v -150 -350 0
v -200 -350 0
v -250 -350 0
v -300 -350 0
v -350 -350 0
v -400 -350 0
v 0 -450 0
v -50 -450 0
v -50 -400 0
v 0 -400 0
v -100 -450 0
v -100 -400 0
v -150 -450 0
v -150 -400 0
v -200 -450 0
v -200 -400 0
v -250 -450 0
v -250 -400 0
v -300 -450 0
v -300 -400 0
v -350 -450 0
v -350 -400 0
v -400 -450 0
v -400 -400 0
v 0 -500 0
v -50 -500 0
v -100 -500 0
v -150 -500 0
v -200 -500 0
v -250 -500 0
v -300 -500 0
v -350 -500 0
v -400 -500 0
v 0 -550 0
v -50 -550 0
v -100 -550 0
v -150 -550 0
v -200 -550 0
v -250 -550 0
v -300 -550 0
v -350 -550 0
v -400 -550 0

# Texture cooridinates (Count = 128)
vt 2.034505E-05 0.6667074
vt 0.1666463 0.6667074
vt 0.1666463 0.9999593
vt 2.034505E-05 0.9999593
vt 0.166687 0.6667074
vt 0.333313 0.6667074
vt 0.333313 0.9999593
vt 0.166687 0.9999593
vt 0.3333537 0.6667074
vt 0.4999796 0.6667074
vt 0.4999796 0.9999593
vt 0.3333537 0.9999593
vt 0.5000203 0.6667074
vt 0.6666463 0.6667074
vt 0.6666463 0.9999593
vt 0.5000203 0.9999593
vt 0.666687 0.6667074
vt 0.833313 0.6667074
vt 0.833313 0.9999593
vt 0.666687 0.9999593
vt 0.8333537 0.6667074
vt 0.9999797 0.6667074
vt 0.9999797 0.9999593
vt 0.8333537 0.9999593
vt 2.034505E-05 0.333374
vt 0.1666463 0.333374
vt 0.1666463 0.666626
vt 2.034505E-05 0.666626
vt 0.166687 0.333374
vt 0.333313 0.333374
vt 0.333313 0.666626
vt 0.166687 0.666626
vt 0.3333537 0.333374
vt 0.4999796 0.333374
vt 0.4999796 0.666626
vt 0.3333537 0.666626
vt 0.5000203 0.333374
vt 0.6666463 0.333374
vt 0.6666463 0.666626
vt 0.5000203 0.666626
vt 0.666687 0.333374
vt 0.833313 0.333374
vt 0.833313 0.666626
vt 0.666687 0.666626
vt 0.8333537 0.333374
vt 0.9999797 0.333374
vt 0.9999797 0.666626
vt 0.8333537 0.666626
vt 2.034505E-05 4.070997E-05
vt 0.1666463 4.070997E-05
vt 0.1666463 0.3332927
vt 2.034505E-05 0.3332927
vt 0.166687 4.070997E-05
vt 0.333313 4.070997E-05
vt 0.333313 0.3332927
vt 0.166687 0.3332927
vt 0.3333537 4.070997E-05
vt 0.4999796 4.070997E-05
vt 0.4999796 0.3332927
vt 0.3333537 0.3332927
vt 0.5000203 4.070997E-05
vt 0.6666463 4.070997E-05
vt 0.6666463 0.3332927
vt 0.5000203 0.3332927
vt 0.666687 4.070997E-05
vt 0.833313 4.070997E-05
vt 0.833313 0.3332927
vt 0.666687 0.3332927
vt 0.8333537 4.070997E-05
vt 0.9999797 4.070997E-05
vt 0.9999797 0.3332927
vt 0.8333537 0.3332927
vt 6.103516E-05 0.8000244
vt 0.499939 0.8000244
vt 0.499939 0.9999756
vt 6.103516E-05 0.9999756
vt 0.500061 0.8000244
vt 0.999939 0.8000244
vt 0.999939 0.9999756
vt 0.500061 0.9999756
vt 6.103516E-05 0.6000244
vt 0.499939 0.6000244
vt 0.499939 0.7999756
vt 6.103516E-05 0.7999756
vt 0.500061 0.6000244
vt 0.999939 0.6000244
vt 0.999939 0.7999756
vt 0.500061 0.7999756
vt 6.103516E-05 0.4000244
vt 0.499939 0.4000244
vt 0.499939 0.5999756
vt 6.103516E-05 0.5999756
vt 0.500061 0.4000244
vt 0.999939 0.4000244
vt 0.999939 0.5999756
vt 0.500061 0.5999756
vt 6.103516E-05 0.2000244
vt 0.499939 0.2000244
vt 0.499939 0.3999756
vt 6.103516E-05 0.3999756
vt 0.500061 0.2000244
vt 0.999939 0.2000244
vt 0.999939 0.3999756
vt 0.500061 0.3999756
vt 6.103516E-05 2.44379E-05
vt 0.499939 2.44379E-05
vt 0.499939 0.1999756
vt 6.103516E-05 0.1999756
vt 0.500061 2.44379E-05
vt 0.999939 2.44379E-05
vt 0.999939 0.1999756
vt 0.500061 0.1999756
vt 6.103516E-05 0.500061
vt 0.499939 0.500061
vt 0.499939 0.999939
vt 6.103516E-05 0.999939
vt 0.500061 0.500061
vt 0.999939 0.500061
vt 0.999939 0.999939
vt 0.500061 0.999939
vt 6.103516E-05 6.103516E-05
vt 0.499939 6.103516E-05
vt 0.499939 0.499939
vt 6.103516E-05 0.499939
vt 0.500061 6.103516E-05
vt 0.999939 6.103516E-05
vt 0.999939 0.499939
vt 0.500061 0.499939

# Normal
vn 0 0 -1

# Groups (Count = 3)

g mesh_0001
f 1/1/1 2/2/1 3/3/1 4/4/1
f 2/5/1 5/6/1 6/7/1 3/8/1
f 5/9/1 7/10/1 8/11/1 6/12/1
f 7/13/1 9/14/1 10/15/1 8/16/1
f 9/17/1 11/18/1 12/19/1 10/20/1
f 11/21/1 13/22/1 14/23/1 12/24/1
f 15/25/1 16/26/1 2/27/1 1/28/1
f 16/29/1 17/30/1 5/31/1 2/32/1
f 17/33/1 18/34/1 7/35/1 5/36/1
f 18/37/1 19/38/1 9/39/1 7/40/1
f 19/41/1 20/42/1 11/43/1 9/44/1
f 20/45/1 21/46/1 13/47/1 11/48/1
f 22/49/1 23/50/1 16/51/1 15/52/1
f 23/53/1 24/54/1 17/55/1 16/56/1
f 24/57/1 25/58/1 18/59/1 17/60/1
f 25/61/1 26/62/1 19/63/1 18/64/1
f 26/65/1 27/66/1 20/67/1 19/68/1
f 27/69/1 28/70/1 21/71/1 20/72/1
f 29/1/1 30/2/1 31/3/1 32/4/1
f 30/5/1 33/6/1 34/7/1 31/8/1
f 33/9/1 35/10/1 36/11/1 34/12/1
f 35/13/1 37/14/1 38/15/1 36/16/1
f 37/9/1 39/10/1 40/11/1 38/12/1
f 39/13/1 41/14/1 42/15/1 40/16/1
f 41/17/1 43/18/1 44/19/1 42/20/1
f 43/21/1 45/22/1 46/23/1 44/24/1
f 47/25/1 48/26/1 30/27/1 29/28/1
f 48/29/1 49/30/1 33/31/1 30/32/1
f 49/33/1 50/34/1 35/35/1 33/36/1
f 50/37/1 51/38/1 37/39/1 35/40/1
f 51/33/1 52/34/1 39/35/1 37/36/1
f 52/37/1 53/38/1 41/39/1 39/40/1
f 53/41/1 54/42/1 43/43/1 41/44/1
f 54/45/1 55/46/1 45/47/1 43/48/1
f 56/49/1 57/50/1 48/51/1 47/52/1
f 57/53/1 58/54/1 49/55/1 48/56/1
f 58/57/1 59/58/1 50/59/1 49/60/1
f 59/61/1 60/62/1 51/63/1 50/64/1
f 60/57/1 61/58/1 52/59/1 51/60/1
f 61/61/1 62/62/1 53/63/1 52/64/1
f 62/65/1 63/66/1 54/67/1 53/68/1
f 63/69/1 64/70/1 55/71/1 54/72/1
f 65/1/1 66/2/1 67/3/1 68/4/1
f 66/5/1 69/6/1 70/7/1 67/8/1
f 69/9/1 71/10/1 72/11/1 70/12/1
f 71/13/1 73/14/1 74/15/1 72/16/1
f 73/9/1 75/10/1 76/11/1 74/12/1
f 75/13/1 77/14/1 78/15/1 76/16/1
f 77/17/1 79/18/1 80/19/1 78/20/1
f 79/21/1 81/22/1 82/23/1 80/24/1
f 83/25/1 84/26/1 66/27/1 65/28/1
f 84/29/1 85/30/1 69/31/1 66/32/1
f 85/33/1 86/34/1 71/35/1 69/36/1
f 86/37/1 87/38/1 73/39/1 71/40/1
f 87/33/1 88/34/1 75/35/1 73/36/1
f 88/37/1 89/38/1 77/39/1 75/40/1
f 89/41/1 90/42/1 79/43/1 77/44/1
f 90/45/1 91/46/1 81/47/1 79/48/1
f 92/49/1 93/50/1 84/51/1 83/52/1
f 93/53/1 94/54/1 85/55/1 84/56/1
f 94/57/1 95/58/1 86/59/1 85/60/1
f 95/61/1 96/62/1 87/63/1 86/64/1
f 96/57/1 97/58/1 88/59/1 87/60/1
f 97/61/1 98/62/1 89/63/1 88/64/1
f 98/65/1 99/66/1 90/67/1 89/68/1
f 99/69/1 100/70/1 91/71/1 90/72/1

g mesh_0002
f 22/73/1 23/74/1 16/75/1 15/76/1
f 23/77/1 24/78/1 17/79/1 16/80/1
f 32/81/1 31/82/1 23/83/1 22/84/1
f 31/85/1 34/86/1 24/87/1 23/88/1
f 29/89/1 30/90/1 31/91/1 32/92/1
f 30/93/1 33/94/1 34/95/1 31/96/1
f 47/97/1 48/98/1 30/99/1 29/100/1
f 48/101/1 49/102/1 33/103/1 30/104/1
f 56/105/1 57/106/1 48/107/1 47/108/1
f 57/109/1 58/110/1 49/111/1 48/112/1
f 62/73/1 63/74/1 54/75/1 53/76/1
f 63/77/1 64/78/1 55/79/1 54/80/1
f 78/81/1 80/82/1 63/83/1 62/84/1
f 80/85/1 82/86/1 64/87/1 63/88/1
f 77/89/1 79/90/1 80/91/1 78/92/1
f 79/93/1 81/94/1 82/95/1 80/96/1
f 89/97/1 90/98/1 79/99/1 77/100/1
f 90/101/1 91/102/1 81/103/1 79/104/1
f 98/105/1 99/106/1 90/107/1 89/108/1
f 99/109/1 100/110/1 91/111/1 90/112/1

g mesh_0003
f 9/113/1 11/114/1 12/115/1 10/116/1
f 11/117/1 13/118/1 14/119/1 12/120/1
f 19/121/1 20/122/1 11/123/1 9/124/1
f 20/125/1 21/126/1 13/127/1 11/128/1
f 33/113/1 35/114/1 36/115/1 34/116/1
f 35/117/1 37/118/1 38/119/1 36/120/1
f 49/121/1 50/122/1 35/123/1 33/124/1
f 50/125/1 51/126/1 37/127/1 35/128/1
f 65/113/1 66/114/1 67/115/1 68/116/1
f 66/117/1 69/118/1 70/119/1 67/120/1
f 83/121/1 84/122/1 66/123/1 65/124/1
f 84/125/1 85/126/1 69/127/1 66/128/1

