# Wavefront OBJ file automatically generated by Tiled2Unity

# Vertices (Count = 187)
v -240 -160 0
v -256 -160 0
v -256 -144 0
v -240 -144 0
v -224 -160 0
v -224 -144 0
v -208 -160 0
v -208 -144 0
v -192 -160 0
v -192 -144 0
v -176 -160 0
v -176 -144 0
v -160 -160 0
v -160 -144 0
v -144 -160 0
v -144 -144 0
v -128 -160 0
v -128 -144 0
v -112 -160 0
v -112 -144 0
v -96 -160 0
v -96 -144 0
v -80 -160 0
v -80 -144 0
v -64 -160 0
v -64 -144 0
v -48 -160 0
v -48 -144 0
v -32 -160 0
v -32 -144 0
v -16 -160 0
v -16 -144 0
v 0 -160 0
v 0 -144 0
v -256 -128 0
v -240 -128 0
v -224 -128 0
v -208 -128 0
v -192 -128 0
v -176 -128 0
v -160 -128 0
v -144 -128 0
v -128 -128 0
v -112 -128 0
v -96 -128 0
v -80 -128 0
v -64 -128 0
v -48 -128 0
v -32 -128 0
v -16 -128 0
v 0 -128 0
v -256 -112 0
v -240 -112 0
v -224 -112 0
v -208 -112 0
v -192 -112 0
v -176 -112 0
v -160 -112 0
v -144 -112 0
v -128 -112 0
v -112 -112 0
v -96 -112 0
v -80 -112 0
v -64 -112 0
v -48 -112 0
v -32 -112 0
v -16 -112 0
v 0 -112 0
v -256 -96 0
v -240 -96 0
v -224 -96 0
v -208 -96 0
v -192 -96 0
v -176 -96 0
v -160 -96 0
v -144 -96 0
v -128 -96 0
v -112 -96 0
v -96 -96 0
v -80 -96 0
v -64 -96 0
v -48 -96 0
v -32 -96 0
v -16 -96 0
v 0 -96 0
v -256 -80 0
v -240 -80 0
v -224 -80 0
v -208 -80 0
v -192 -80 0
v -176 -80 0
v -160 -80 0
v -144 -80 0
v -128 -80 0
v -112 -80 0
v -96 -80 0
v -80 -80 0
v -64 -80 0
v -48 -80 0
v -32 -80 0
v -16 -80 0
v 0 -80 0
v -256 -64 0
v -240 -64 0
v -224 -64 0
v -208 -64 0
v -192 -64 0
v -176 -64 0
v -160 -64 0
v -144 -64 0
v -128 -64 0
v -112 -64 0
v -96 -64 0
v -80 -64 0
v -64 -64 0
v -48 -64 0
v -32 -64 0
v -16 -64 0
v 0 -64 0
v -256 -48 0
v -240 -48 0
v -224 -48 0
v -208 -48 0
v -192 -48 0
v -176 -48 0
v -160 -48 0
v -144 -48 0
v -128 -48 0
v -112 -48 0
v -96 -48 0
v -80 -48 0
v -64 -48 0
v -48 -48 0
v -32 -48 0
v -16 -48 0
v 0 -48 0
v -256 -32 0
v -240 -32 0
v -224 -32 0
v -208 -32 0
v -192 -32 0
v -176 -32 0
v -160 -32 0
v -144 -32 0
v -128 -32 0
v -112 -32 0
v -96 -32 0
v -80 -32 0
v -64 -32 0
v -48 -32 0
v -32 -32 0
v -16 -32 0
v 0 -32 0
v -256 -16 0
v -240 -16 0
v -224 -16 0
v -208 -16 0
v -192 -16 0
v -176 -16 0
v -160 -16 0
v -144 -16 0
v -128 -16 0
v -112 -16 0
v -96 -16 0
v -80 -16 0
v -64 -16 0
v -48 -16 0
v -32 -16 0
v -16 -16 0
v 0 -16 0
v -256 0 0
v -240 0 0
v -224 0 0
v -208 0 0
v -192 0 0
v -176 0 0
v -160 0 0
v -144 0 0
v -128 0 0
v -112 0 0
v -96 0 0
v -80 0 0
v -64 0 0
v -48 0 0
v -32 0 0
v -16 0 0
v 0 0 0

# Texture cooridinates (Count = 8)
vt 0.500061 0.0001220703
vt 0.999939 0.0001220703
vt 0.999939 0.9998779
vt 0.500061 0.9998779
vt 6.103516E-05 0.0001220703
vt 0.499939 0.0001220703
vt 0.499939 0.9998779
vt 6.103516E-05 0.9998779

# Normal
vn 0 0 -1

# Groups (Count = 1)

g mesh_0001
f 1/1/1 2/2/1 3/3/1 4/4/1
f 5/1/1 1/2/1 4/3/1 6/4/1
f 7/1/1 5/2/1 6/3/1 8/4/1
f 9/1/1 7/2/1 8/3/1 10/4/1
f 11/1/1 9/2/1 10/3/1 12/4/1
f 13/1/1 11/2/1 12/3/1 14/4/1
f 15/1/1 13/2/1 14/3/1 16/4/1
f 17/1/1 15/2/1 16/3/1 18/4/1
f 19/1/1 17/2/1 18/3/1 20/4/1
f 21/1/1 19/2/1 20/3/1 22/4/1
f 23/1/1 21/2/1 22/3/1 24/4/1
f 25/1/1 23/2/1 24/3/1 26/4/1
f 27/1/1 25/2/1 26/3/1 28/4/1
f 29/1/1 27/2/1 28/3/1 30/4/1
f 31/1/1 29/2/1 30/3/1 32/4/1
f 33/1/1 31/2/1 32/3/1 34/4/1
f 4/1/1 3/2/1 35/3/1 36/4/1
f 6/5/1 4/6/1 36/7/1 37/8/1
f 8/5/1 6/6/1 37/7/1 38/8/1
f 10/5/1 8/6/1 38/7/1 39/8/1
f 12/5/1 10/6/1 39/7/1 40/8/1
f 14/1/1 12/2/1 40/3/1 41/4/1
f 16/5/1 14/6/1 41/7/1 42/8/1
f 18/5/1 16/6/1 42/7/1 43/8/1
f 20/5/1 18/6/1 43/7/1 44/8/1
f 22/1/1 20/2/1 44/3/1 45/4/1
f 24/5/1 22/6/1 45/7/1 46/8/1
f 26/5/1 24/6/1 46/7/1 47/8/1
f 28/5/1 26/6/1 47/7/1 48/8/1
f 30/5/1 28/6/1 48/7/1 49/8/1
f 32/5/1 30/6/1 49/7/1 50/8/1
f 34/1/1 32/2/1 50/3/1 51/4/1
f 36/1/1 35/2/1 52/3/1 53/4/1
f 37/5/1 36/6/1 53/7/1 54/8/1
f 38/5/1 37/6/1 54/7/1 55/8/1
f 39/5/1 38/6/1 55/7/1 56/8/1
f 40/5/1 39/6/1 56/7/1 57/8/1
f 41/5/1 40/6/1 57/7/1 58/8/1
f 42/5/1 41/6/1 58/7/1 59/8/1
f 43/5/1 42/6/1 59/7/1 60/8/1
f 44/5/1 43/6/1 60/7/1 61/8/1
f 45/1/1 44/2/1 61/3/1 62/4/1
f 46/5/1 45/6/1 62/7/1 63/8/1
f 47/1/1 46/2/1 63/3/1 64/4/1
f 48/1/1 47/2/1 64/3/1 65/4/1
f 49/1/1 48/2/1 65/3/1 66/4/1
f 50/5/1 49/6/1 66/7/1 67/8/1
f 51/1/1 50/2/1 67/3/1 68/4/1
f 53/1/1 52/2/1 69/3/1 70/4/1
f 54/5/1 53/6/1 70/7/1 71/8/1
f 55/1/1 54/2/1 71/3/1 72/4/1
f 56/5/1 55/6/1 72/7/1 73/8/1
f 57/5/1 56/6/1 73/7/1 74/8/1
f 58/5/1 57/6/1 74/7/1 75/8/1
f 59/5/1 58/6/1 75/7/1 76/8/1
f 60/5/1 59/6/1 76/7/1 77/8/1
f 61/5/1 60/6/1 77/7/1 78/8/1
f 62/1/1 61/2/1 78/3/1 79/4/1
f 63/5/1 62/6/1 79/7/1 80/8/1
f 64/5/1 63/6/1 80/7/1 81/8/1
f 65/5/1 64/6/1 81/7/1 82/8/1
f 66/5/1 65/6/1 82/7/1 83/8/1
f 67/5/1 66/6/1 83/7/1 84/8/1
f 68/1/1 67/2/1 84/3/1 85/4/1
f 70/1/1 69/2/1 86/3/1 87/4/1
f 71/5/1 70/6/1 87/7/1 88/8/1
f 72/5/1 71/6/1 88/7/1 89/8/1
f 73/5/1 72/6/1 89/7/1 90/8/1
f 74/5/1 73/6/1 90/7/1 91/8/1
f 75/5/1 74/6/1 91/7/1 92/8/1
f 76/5/1 75/6/1 92/7/1 93/8/1
f 77/5/1 76/6/1 93/7/1 94/8/1
f 78/1/1 77/2/1 94/3/1 95/4/1
f 79/1/1 78/2/1 95/3/1 96/4/1
f 80/5/1 79/6/1 96/7/1 97/8/1
f 81/5/1 80/6/1 97/7/1 98/8/1
f 82/5/1 81/6/1 98/7/1 99/8/1
f 83/5/1 82/6/1 99/7/1 100/8/1
f 84/5/1 83/6/1 100/7/1 101/8/1
f 85/1/1 84/2/1 101/3/1 102/4/1
f 87/1/1 86/2/1 103/3/1 104/4/1
f 88/5/1 87/6/1 104/7/1 105/8/1
f 89/5/1 88/6/1 105/7/1 106/8/1
f 90/5/1 89/6/1 106/7/1 107/8/1
f 91/5/1 90/6/1 107/7/1 108/8/1
f 92/5/1 91/6/1 108/7/1 109/8/1
f 93/5/1 92/6/1 109/7/1 110/8/1
f 94/5/1 93/6/1 110/7/1 111/8/1
f 95/5/1 94/6/1 111/7/1 112/8/1
f 96/1/1 95/2/1 112/3/1 113/4/1
f 97/5/1 96/6/1 113/7/1 114/8/1
f 98/5/1 97/6/1 114/7/1 115/8/1
f 99/5/1 98/6/1 115/7/1 116/8/1
f 100/5/1 99/6/1 116/7/1 117/8/1
f 101/1/1 100/2/1 117/3/1 118/4/1
f 102/1/1 101/2/1 118/3/1 119/4/1
f 104/1/1 103/2/1 120/3/1 121/4/1
f 105/5/1 104/6/1 121/7/1 122/8/1
f 106/5/1 105/6/1 122/7/1 123/8/1
f 107/1/1 106/2/1 123/3/1 124/4/1
f 108/5/1 107/6/1 124/7/1 125/8/1
f 109/5/1 108/6/1 125/7/1 126/8/1
f 110/5/1 109/6/1 126/7/1 127/8/1
f 111/1/1 110/2/1 127/3/1 128/4/1
f 112/5/1 111/6/1 128/7/1 129/8/1
f 113/5/1 112/6/1 129/7/1 130/8/1
f 114/5/1 113/6/1 130/7/1 131/8/1
f 115/5/1 114/6/1 131/7/1 132/8/1
f 116/5/1 115/6/1 132/7/1 133/8/1
f 117/5/1 116/6/1 133/7/1 134/8/1
f 118/5/1 117/6/1 134/7/1 135/8/1
f 119/1/1 118/2/1 135/3/1 136/4/1
f 121/5/1 120/6/1 137/7/1 138/8/1
f 122/5/1 121/6/1 138/7/1 139/8/1
f 123/5/1 122/6/1 139/7/1 140/8/1
f 124/5/1 123/6/1 140/7/1 141/8/1
f 125/5/1 124/6/1 141/7/1 142/8/1
f 126/5/1 125/6/1 142/7/1 143/8/1
f 127/5/1 126/6/1 143/7/1 144/8/1
f 128/5/1 127/6/1 144/7/1 145/8/1
f 129/5/1 128/6/1 145/7/1 146/8/1
f 130/1/1 129/2/1 146/3/1 147/4/1
f 131/5/1 130/6/1 147/7/1 148/8/1
f 132/5/1 131/6/1 148/7/1 149/8/1
f 133/5/1 132/6/1 149/7/1 150/8/1
f 134/5/1 133/6/1 150/7/1 151/8/1
f 135/5/1 134/6/1 151/7/1 152/8/1
f 136/1/1 135/2/1 152/3/1 153/4/1
f 138/1/1 137/2/1 154/3/1 155/4/1
f 139/5/1 138/6/1 155/7/1 156/8/1
f 140/5/1 139/6/1 156/7/1 157/8/1
f 141/5/1 140/6/1 157/7/1 158/8/1
f 142/1/1 141/2/1 158/3/1 159/4/1
f 143/5/1 142/6/1 159/7/1 160/8/1
f 144/5/1 143/6/1 160/7/1 161/8/1
f 145/5/1 144/6/1 161/7/1 162/8/1
f 146/5/1 145/6/1 162/7/1 163/8/1
f 147/1/1 146/2/1 163/3/1 164/4/1
f 148/5/1 147/6/1 164/7/1 165/8/1
f 149/5/1 148/6/1 165/7/1 166/8/1
f 150/5/1 149/6/1 166/7/1 167/8/1
f 151/5/1 150/6/1 167/7/1 168/8/1
f 152/5/1 151/6/1 168/7/1 169/8/1
f 153/1/1 152/2/1 169/3/1 170/4/1
f 155/1/1 154/2/1 171/3/1 172/4/1
f 156/1/1 155/2/1 172/3/1 173/4/1
f 157/1/1 156/2/1 173/3/1 174/4/1
f 158/1/1 157/2/1 174/3/1 175/4/1
f 159/1/1 158/2/1 175/3/1 176/4/1
f 160/1/1 159/2/1 176/3/1 177/4/1
f 161/1/1 160/2/1 177/3/1 178/4/1
f 162/1/1 161/2/1 178/3/1 179/4/1
f 163/1/1 162/2/1 179/3/1 180/4/1
f 164/1/1 163/2/1 180/3/1 181/4/1
f 165/1/1 164/2/1 181/3/1 182/4/1
f 166/1/1 165/2/1 182/3/1 183/4/1
f 167/1/1 166/2/1 183/3/1 184/4/1
f 168/1/1 167/2/1 184/3/1 185/4/1
f 169/1/1 168/2/1 185/3/1 186/4/1
f 170/1/1 169/2/1 186/3/1 187/4/1

